# xmcd CD database file
#
# Track frame offsets:
#	150
#	15410
#	33217
#
# Disc length: 644 seconds
#
# Revision: 1
# Processed by: cddbd v1.5.2PL0 Copyright (c) Steve Scherf et al.
# Submitted via: CDex 1.82
#
DISCID=13028203
DTITLE=Maki Goto - Yokohama Shinkirou
DYEAR=2004
DGENRE=Pop
TTITLE0=Yokohama Shinkirou
TTITLE1=BLUE ISLAND 
TTITLE2=Yokohama Shinkirou (Instrumental)
EXTD=YEAR: 2004
EXTT0=
EXTT1=
EXTT2=
PLAYORDER=
